<svg viewBox="0 0 200 56" fill="none" xmlns="http://www.w3.org/2000/svg">
<rect x="14.0002" y="18" width="186" height="38" rx="19" fill="#CA83FA"/>
<path d="M80.6682 43.9609V38.875H76.9065V36.9531H82.8245V45.3555C81.9026 45.6602 80.969 45.8828 80.0237 46.0234C79.0784 46.1641 78.0042 46.2344 76.801 46.2344C75.0198 46.2344 73.5276 45.8789 72.3245 45.168C71.1057 44.457 70.1799 43.4414 69.5471 42.1211C68.9143 40.8008 68.5979 39.2383 68.5979 37.4336C68.5979 35.668 68.9456 34.1211 69.6409 32.793C70.3362 31.4727 71.3479 30.4492 72.676 29.7227C74.0042 28.9883 75.6057 28.6211 77.4807 28.6211C78.4417 28.6211 79.3479 28.7109 80.1995 28.8906C81.0588 29.0625 81.8557 29.3086 82.5901 29.6289L81.7698 31.5039C81.1682 31.2461 80.4846 31.0195 79.719 30.8242C78.9612 30.6211 78.176 30.5195 77.3635 30.5195C75.3088 30.5195 73.7112 31.1406 72.5706 32.3828C71.4299 33.6172 70.8596 35.3008 70.8596 37.4336C70.8596 38.7852 71.0784 39.9883 71.5159 41.043C71.9534 42.0898 72.6448 42.9062 73.5901 43.4922C74.5354 44.0781 75.7737 44.3711 77.3049 44.3711C78.0627 44.3711 78.7034 44.332 79.2268 44.2539C79.7581 44.168 80.2385 44.0703 80.6682 43.9609ZM87.7112 28.3164C88.0315 28.3164 88.3167 28.4258 88.5667 28.6445C88.8167 28.8555 88.9417 29.1914 88.9417 29.6523C88.9417 30.1211 88.8167 30.4648 88.5667 30.6836C88.3167 30.8945 88.0315 31 87.7112 31C87.3596 31 87.0627 30.8945 86.8206 30.6836C86.5862 30.4648 86.469 30.1211 86.469 29.6523C86.469 29.1914 86.5862 28.8555 86.8206 28.6445C87.0627 28.4258 87.3596 28.3164 87.7112 28.3164ZM88.7542 33.1328V46H86.6331V33.1328H88.7542ZM97.1213 44.5117C97.4417 44.5117 97.7698 44.4883 98.1057 44.4414C98.4417 44.3945 98.7151 44.3281 98.926 44.2422V45.8594C98.6995 45.9688 98.3752 46.0586 97.9534 46.1289C97.5393 46.1992 97.1409 46.2344 96.7581 46.2344C96.0862 46.2344 95.469 46.1172 94.9065 45.8828C94.3362 45.6562 93.8752 45.2578 93.5237 44.6875C93.1721 44.1094 92.9963 43.3008 92.9963 42.2617V34.7734H91.1682V33.7656L93.0198 32.9219L93.8518 30.1797H95.1057V33.1328H98.8206V34.7734H95.1057V42.2031C95.1057 42.9922 95.2932 43.5742 95.6682 43.9492C96.0432 44.3242 96.5276 44.5117 97.1213 44.5117ZM103.942 36.1094H112.731V28.8672H114.887V46H112.731V38.0078H103.942V46H101.785V28.8672H103.942V36.1094ZM127.93 39.8359V33.1328H130.039V46H128.305L128 44.3008H127.906C127.485 44.9727 126.906 45.4648 126.172 45.7773C125.438 46.082 124.653 46.2344 123.817 46.2344C122.27 46.2344 121.102 45.8633 120.313 45.1211C119.531 44.3789 119.141 43.1914 119.141 41.5586V33.1328H121.274V41.418C121.274 43.4648 122.227 44.4883 124.133 44.4883C125.555 44.4883 126.543 44.0898 127.098 43.293C127.653 42.4883 127.93 41.3359 127.93 39.8359ZM135.641 46H134.129V27.7656H136.239V32.1953C136.239 32.7422 136.227 33.2539 136.203 33.7305C136.18 34.1992 136.153 34.5703 136.121 34.8438H136.239C136.606 34.2969 137.11 33.8398 137.75 33.4727C138.391 33.1055 139.215 32.9219 140.223 32.9219C141.824 32.9219 143.11 33.4805 144.078 34.5977C145.047 35.707 145.531 37.3633 145.531 39.5664C145.531 41.7773 145.043 43.4414 144.067 44.5586C143.09 45.6758 141.809 46.2344 140.223 46.2344C139.215 46.2344 138.391 46.0508 137.75 45.6836C137.11 45.3164 136.606 44.8789 136.239 44.3711H136.074L135.641 46ZM139.86 34.668C138.485 34.668 137.535 35.0625 137.012 35.8516C136.496 36.6328 136.239 37.8477 136.239 39.4961V39.5898C136.239 41.1758 136.496 42.3906 137.012 43.2344C137.535 44.0703 138.504 44.4883 139.918 44.4883C141.067 44.4883 141.922 44.0664 142.485 43.2227C143.055 42.3711 143.34 41.1445 143.34 39.543C143.34 36.293 142.18 34.668 139.86 34.668Z" fill="#FDFDFD"/>
<path d="M10.4507 7.7004C9.72925 7.41129 8.96822 8.01959 9.09127 8.78696L11.6789 24.9241C11.8002 25.6805 12.6922 26.0252 13.2907 25.5468L25.8734 15.4893C26.4718 15.011 26.3322 14.065 25.621 13.78L10.4507 7.7004Z" fill="#CA83FA"/>
</svg>
