<svg viewBox="0 0 200 56" fill="none" xmlns="http://www.w3.org/2000/svg">
<rect x="13.9998" y="17.9999" width="186" height="38" rx="19" fill="#0C0C0C"/>
<path d="M88.3435 41.4178C88.3435 42.9335 87.7888 44.1171 86.6794 44.9686C85.5779 45.8124 84.0896 46.2343 82.2146 46.2343C81.2615 46.2343 80.3748 46.1639 79.5544 46.0233C78.7419 45.8827 78.0623 45.6835 77.5154 45.4257V43.3632C78.0935 43.6132 78.8083 43.8436 79.6599 44.0546C80.5193 44.2655 81.406 44.371 82.3201 44.371C83.5779 44.371 84.5349 44.1249 85.1912 43.6327C85.8474 43.1327 86.1755 42.4569 86.1755 41.6053C86.1755 41.0428 86.0583 40.5702 85.824 40.1874C85.5818 39.7968 85.1638 39.4452 84.5701 39.1327C83.9763 38.8124 83.1677 38.4608 82.1443 38.078C80.6755 37.5546 79.5701 36.91 78.8279 36.1444C78.0935 35.371 77.7263 34.3202 77.7263 32.9921C77.7263 32.0936 77.9607 31.3163 78.4294 30.66C79.3904 29.3007 80.9802 28.621 83.199 28.621C84.1287 28.621 84.9841 28.7108 85.7654 28.8905C86.5544 29.0624 87.2771 29.2928 87.9333 29.5819L87.2537 31.4335C86.6677 31.1757 86.0193 30.9608 85.3083 30.7889C84.6052 30.6093 83.8865 30.5194 83.1521 30.5194C82.0818 30.5194 81.2732 30.7499 80.7263 31.2108C80.1873 31.6639 79.9177 32.2655 79.9177 33.0155C79.9177 33.5936 80.0388 34.0741 80.281 34.4569C80.5154 34.8397 80.906 35.1874 81.4529 35.4999C81.9998 35.8124 82.7341 36.1366 83.656 36.4725C84.656 36.8319 85.5076 37.2264 86.2107 37.6561C86.906 38.0858 87.4333 38.5975 87.7927 39.1913C88.1599 39.7772 88.3435 40.5194 88.3435 41.4178ZM93.6169 45.9999H91.5076V27.7655H93.6169V33.1093C93.6169 33.7733 93.5779 34.3749 93.4998 34.9139H93.6404C94.0623 34.2577 94.6287 33.7616 95.3396 33.4257C96.0505 33.0897 96.8201 32.9218 97.6482 32.9218C99.2029 32.9218 100.375 33.2928 101.164 34.035C101.961 34.7772 102.359 35.9725 102.359 37.621V45.9999H100.273V37.7733C100.273 35.703 99.3123 34.6678 97.3904 34.6678C95.9451 34.6678 94.9529 35.0741 94.4138 35.8866C93.8826 36.6913 93.6169 37.8475 93.6169 39.3553V45.9999ZM117.523 39.5428C117.523 41.6678 116.98 43.3163 115.894 44.4882C114.816 45.6522 113.359 46.2343 111.523 46.2343C110.375 46.2343 109.363 45.9725 108.488 45.4491C107.597 44.9335 106.894 44.1757 106.379 43.1757C105.871 42.1757 105.617 40.9647 105.617 39.5428C105.617 37.4178 106.148 35.7811 107.211 34.6327C108.273 33.4764 109.734 32.8983 111.594 32.8983C112.742 32.8983 113.765 33.1561 114.664 33.6718C115.562 34.1952 116.261 34.9491 116.761 35.9335C117.269 36.9178 117.523 38.121 117.523 39.5428ZM107.797 39.5428C107.797 41.0663 108.097 42.2733 108.699 43.1639C109.301 44.0468 110.258 44.4882 111.57 44.4882C112.867 44.4882 113.816 44.0468 114.418 43.1639C115.027 42.2733 115.332 41.0663 115.332 39.5428C115.332 38.0272 115.027 36.8358 114.418 35.9686C113.816 35.1014 112.859 34.6678 111.547 34.6678C110.234 34.6678 109.281 35.1014 108.687 35.9686C108.094 36.8358 107.797 38.0272 107.797 39.5428ZM135.265 33.1093H137.433L133.859 45.9764H131.386L129.172 38.7225C128.969 38.0663 128.785 37.4296 128.621 36.8124C128.465 36.1874 128.351 35.6913 128.281 35.3241H128.187C128.125 35.6913 128.019 36.1874 127.871 36.8124C127.73 37.4296 127.547 38.078 127.32 38.7577L125.023 45.9764H122.621L119.094 33.1093H121.273L123.054 39.9764C123.226 40.6639 123.39 41.3593 123.547 42.0624C123.711 42.7655 123.828 43.3514 123.898 43.8202H123.992C124.015 43.6874 124.043 43.535 124.074 43.3632C124.113 43.1913 124.16 43.0038 124.215 42.8007C124.308 42.4022 124.41 41.9843 124.519 41.5468C124.629 41.1093 124.742 40.7147 124.859 40.3632L127.133 33.1093H129.441L131.644 40.3632C131.808 40.9178 131.976 41.5155 132.148 42.1561C132.328 42.7968 132.449 43.3436 132.511 43.7968H132.605C132.652 43.3905 132.758 42.8358 132.922 42.1327C133.094 41.4296 133.277 40.7108 133.472 39.9764L135.265 33.1093Z" fill="#FDFDFD"/>
<path d="M10.4502 7.70027C9.72876 7.41117 8.96773 8.01947 9.09078 8.78684L11.6784 24.9239C11.7997 25.6804 12.6918 26.0251 13.2902 25.5467L25.8729 15.4892C26.4714 15.0109 26.3317 14.0648 25.6205 13.7799L10.4502 7.70027Z" fill="#0C0C0C"/>
</svg>
